<svg xmlns="http://www.w3.org/2000/svg" width="22.656" height="17.126" viewBox="0 0 22.656 17.126"><path d="M22.227,69.655a.266.266,0,0,1,.429.21v9.121a2.133,2.133,0,0,1-2.124,2.141H2.124A2.133,2.133,0,0,1,0,78.985V69.869a.264.264,0,0,1,.429-.21c.991.776,2.305,1.762,6.819,5.066.934.687,2.509,2.132,4.08,2.123,1.58.013,3.186-1.463,4.084-2.123C19.926,71.421,21.236,70.431,22.227,69.655Zm-10.9,5.762c1.027.018,2.5-1.3,3.248-1.846,5.872-4.295,6.319-4.67,7.673-5.74a1.07,1.07,0,0,0,.407-.843v-.847A2.133,2.133,0,0,0,20.532,64H2.124A2.133,2.133,0,0,0,0,66.141v.847a1.077,1.077,0,0,0,.407.843c1.354,1.066,1.8,1.445,7.673,5.74C8.823,74.115,10.3,75.435,11.328,75.417Z" transform="translate(0 -64)" fill="#fff"/></svg>