<svg xmlns="http://www.w3.org/2000/svg" xmlns:xlink="http://www.w3.org/1999/xlink" width="352.165" height="262.075" viewBox="0 0 352.165 262.075"><defs><radialGradient id="a" cx="0.5" cy="0.5" r="0.527" gradientTransform="matrix(0.749, 0.662, -0.662, 0.749, 0.456, -0.206)" gradientUnits="objectBoundingBox"><stop offset="0" stop-color="#6c6c6c"/><stop offset="1" stop-color="#363636"/></radialGradient></defs><g transform="translate(-110.723 -2456.206)"><path d="M-17.7,260.8H-177.177A10.579,10.579,0,0,0-187.8,271.423V381.194a10.579,10.579,0,0,0,10.623,10.623h51.8v12.721h-1.311a5.542,5.542,0,0,0-5.508,5.508,5.541,5.541,0,0,0,5.508,5.508h58.492a5.541,5.541,0,0,0,5.508-5.508,5.542,5.542,0,0,0-5.508-5.508H-69.5V391.817h51.8A10.579,10.579,0,0,0-7.078,381.194V271.423A10.579,10.579,0,0,0-17.7,260.8Zm2.361,120.394a2.49,2.49,0,0,1-2.492,2.492H-177.308a2.49,2.49,0,0,1-2.492-2.492V271.423a2.49,2.49,0,0,1,2.492-2.492H-17.832a2.49,2.49,0,0,1,2.492,2.492Z" transform="translate(380.194 2277.649)" fill="#1f232b"/><path d="M6.557,40.131a6.494,6.494,0,0,0,6.557-6.557v-.131l19.148-6.688a6.394,6.394,0,0,0,5.115,2.623,5.717,5.717,0,0,0,3.934-1.312L61.9,42.1a8.856,8.856,0,0,0-.262,1.836,6.557,6.557,0,1,0,13.115,0,7.635,7.635,0,0,0-.393-2.492l21.377-18.23a6.056,6.056,0,0,0,3.41.918,6.494,6.494,0,0,0,6.557-6.557v-.262l19.148-6.82a6.394,6.394,0,0,0,5.115,2.623,6.494,6.494,0,0,0,6.557-6.557,6.557,6.557,0,1,0-13.115,0v.131l-19.148,6.82a6.394,6.394,0,0,0-5.115-2.623,6.494,6.494,0,0,0-6.557,6.557,7.636,7.636,0,0,0,.393,2.492L71.607,38.164a6.056,6.056,0,0,0-3.41-.918,5.717,5.717,0,0,0-3.934,1.311L43.672,24.525a8.854,8.854,0,0,0,.262-1.836,6.557,6.557,0,0,0-13.115,0v.131L11.672,29.508a6.394,6.394,0,0,0-5.115-2.623A6.494,6.494,0,0,0,0,33.443,6.78,6.78,0,0,0,6.557,40.131Z" transform="translate(209.981 2601.53) rotate(-16)" fill="#1f232b"/><path d="M-25.011,305.9a19.62,19.62,0,0,1,6.82-1.18,16.621,16.621,0,0,1,4.459.525V281.639A5.681,5.681,0,0,0-19.372,276H-47.7v11.279h22.689V305.9Z" transform="translate(423.831 2282.383)" fill="#1f232b"/><path d="M-217.61,300.631a5.681,5.681,0,0,0-5.639,5.639v73.443H-230.2a21.135,21.135,0,0,1,.787,5.77,18.4,18.4,0,0,1-.787,5.377h12.459a5.681,5.681,0,0,0,5.639-5.639V311.779h33.967V300.5H-217.61Z" transform="translate(366.987 2290.015)" fill="#1f232b"/><path d="M-202.716,394.753a20.624,20.624,0,0,1,6.426,1.049V329.179h11.279V317.9h-17.049a5.681,5.681,0,0,0-5.639,5.639v71.869A15.776,15.776,0,0,1-202.716,394.753Z" transform="translate(373.995 2295.435)" fill="#1f232b"/><path d="M-62.2,233a20.2,20.2,0,0,1,.787,5.639,20.2,20.2,0,0,1-.787,5.639h31.344V233Z" transform="translate(419.315 2268.99)" fill="#1f232b"/><path d="M28.279,253.048a22.981,22.981,0,0,1-5.246-.656v19.016H-22.082V218.162a22.785,22.785,0,0,1-5.115.656,19.507,19.507,0,0,1-6.164-.918v53.9H-55a13.289,13.289,0,0,1,9.311,11.148H28.672a5.681,5.681,0,0,0,5.639-5.639V252.13A22.335,22.335,0,0,1,28.279,253.048Z" transform="translate(421.558 2264.287)" fill="#1f232b"/><path d="M-78.4,223.8a12.5,12.5,0,0,0-12.5,12.5,12.5,12.5,0,0,0,12.5,12.5,12.5,12.5,0,0,0,12.5-12.5A12.5,12.5,0,0,0-78.4,223.8Zm0,19.256A6.736,6.736,0,0,1-85.16,236.3,6.736,6.736,0,0,1-78.4,229.54a6.736,6.736,0,0,1,6.758,6.758A6.8,6.8,0,0,1-78.4,243.056Z" transform="translate(201.623 2438.928)" fill="url(#a)"/><path d="M-78.4,223.8a12.5,12.5,0,0,0-12.5,12.5,12.5,12.5,0,0,0,12.5,12.5,12.5,12.5,0,0,0,12.5-12.5A12.5,12.5,0,0,0-78.4,223.8Zm0,19.256A6.736,6.736,0,0,1-85.16,236.3,6.736,6.736,0,0,1-78.4,229.54a6.736,6.736,0,0,1,6.758,6.758A6.8,6.8,0,0,1-78.4,243.056Z" transform="translate(201.623 2438.928)" fill="#1f232b"/><path d="M-78.4,223.8a12.5,12.5,0,0,0-12.5,12.5,12.5,12.5,0,0,0,12.5,12.5,12.5,12.5,0,0,0,12.5-12.5A12.5,12.5,0,0,0-78.4,223.8Zm0,19.256A6.736,6.736,0,0,1-85.16,236.3,6.736,6.736,0,0,1-78.4,229.54a6.736,6.736,0,0,1,6.758,6.758A6.8,6.8,0,0,1-78.4,243.056Z" transform="translate(249.566 2469.485)" fill="#1f232b"/><path d="M-78.4,223.8a12.5,12.5,0,0,0-12.5,12.5,12.5,12.5,0,0,0,12.5,12.5,12.5,12.5,0,0,0,12.5-12.5A12.5,12.5,0,0,0-78.4,223.8Zm0,19.256A6.736,6.736,0,0,1-85.16,236.3,6.736,6.736,0,0,1-78.4,229.54a6.736,6.736,0,0,1,6.758,6.758A6.8,6.8,0,0,1-78.4,243.056Z" transform="translate(482.957 2365.698)" fill="#1f232b"/><path d="M-78.4,223.8a12.5,12.5,0,0,0-12.5,12.5,12.5,12.5,0,0,0,12.5,12.5,12.5,12.5,0,0,0,12.5-12.5A12.5,12.5,0,0,0-78.4,223.8Zm0,19.256A6.736,6.736,0,0,1-85.16,236.3,6.736,6.736,0,0,1-78.4,229.54a6.736,6.736,0,0,1,6.758,6.758A6.8,6.8,0,0,1-78.4,243.056Z" transform="translate(528.792 2266.651)" fill="#1f232b"/><path d="M-78.4,223.8a12.5,12.5,0,0,0-12.5,12.5,12.5,12.5,0,0,0,12.5,12.5,12.5,12.5,0,0,0,12.5-12.5A12.5,12.5,0,0,0-78.4,223.8Zm0,19.256A6.736,6.736,0,0,1-85.16,236.3,6.736,6.736,0,0,1-78.4,229.54a6.736,6.736,0,0,1,6.758,6.758A6.8,6.8,0,0,1-78.4,243.056Z" transform="translate(472.42 2232.406)" fill="#1f232b"/><path d="M-78.4,223.8a12.5,12.5,0,0,0-12.5,12.5,12.5,12.5,0,0,0,12.5,12.5,12.5,12.5,0,0,0,12.5-12.5A12.5,12.5,0,0,0-78.4,223.8Zm0,19.256A6.736,6.736,0,0,1-85.16,236.3,6.736,6.736,0,0,1-78.4,229.54a6.736,6.736,0,0,1,6.758,6.758A6.8,6.8,0,0,1-78.4,243.056Z" transform="translate(422.37 2270.866)" fill="#1f232b"/></g></svg>