<svg xmlns="http://www.w3.org/2000/svg" xmlns:xlink="http://www.w3.org/1999/xlink" width="259.434" height="197.061" viewBox="0 0 259.434 197.061"><defs><filter id="a" x="0" y="22.409" width="137.029" height="174.651" filterUnits="userSpaceOnUse"><feOffset dy="3" input="SourceAlpha"/><feGaussianBlur stdDeviation="3" result="b"/><feFlood flood-opacity="0.251"/><feComposite operator="in" in2="b"/><feComposite in="SourceGraphic"/></filter></defs><g transform="translate(-793.165 -2132.926)"><g transform="translate(802.669 2132.926)"><g transform="translate(0 28.913)"><g transform="matrix(1, 0, 0, 1, -9.5, -28.91)" filter="url(#a)"><path d="M102.9,394.154a7.538,7.538,0,0,1-7.568-7.678l.11-21.718-4.813-.036L7.7,364.1,6.6,518.866l117.144.878.878-125.371Z" transform="translate(2.9 -335.19)" fill="#f1f1f1" stroke="#f1f1f1" stroke-width="1"/></g></g><path d="M144.952,345.642,66.006,294.107a75.15,75.15,0,0,0,5.482-57.748,77.02,77.02,0,0,0-96.125-51.535A77.47,77.47,0,0,0-76.172,280.95a77.47,77.47,0,0,0,96.125,51.535A78.478,78.478,0,0,0,56.5,308.362l70.175,59.21S151.9,369.4,144.952,345.642Zm-130.116-30.7c-30.7,9.5-63.6-8.041-73.1-39.108a58.478,58.478,0,0,1,39.108-73.1,58.478,58.478,0,0,1,73.1,39.108A58.77,58.77,0,0,1,14.836,314.941Z" transform="translate(103.768 -181.487)" fill="#0d1112"/></g></g></svg>