<svg xmlns="http://www.w3.org/2000/svg" width="40.46" height="40.465" viewBox="0 0 40.46 40.465"><g transform="translate(-401.439 -3918.249)"><g transform="translate(401.439 3918.249)"><g transform="translate(0 0)"><path d="M20.23,40.466a123.017,123.017,0,0,1-13-.692A7.369,7.369,0,0,1,.69,33.227a122.724,122.724,0,0,1,0-25.989A7.369,7.369,0,0,1,7.234.692a122.288,122.288,0,0,1,25.99,0,7.369,7.369,0,0,1,6.544,6.546,122.523,122.523,0,0,1,0,25.989,7.369,7.369,0,0,1-6.544,6.546A122.984,122.984,0,0,1,20.23,40.466ZM9.286,17.006a.251.251,0,0,0-.252.255v8.688a2.034,2.034,0,0,0,2.024,2.04H28.6a2.034,2.034,0,0,0,2.024-2.04V17.258A.256.256,0,0,0,30.367,17a.241.241,0,0,0-.153.055c-1.008.788-2.341,1.791-6.495,4.831-.129.095-.275.209-.43.33-.865.675-2.171,1.694-3.442,1.694h-.034c-1.266,0-2.517-.973-3.43-1.684-.159-.124-.309-.24-.443-.339-4.306-3.151-5.566-4.1-6.5-4.828A.254.254,0,0,0,9.286,17.006Zm1.772-5.338a2.034,2.034,0,0,0-2.024,2.04v.807a1.022,1.022,0,0,0,.387.8l.267.21c1.115.88,1.851,1.461,7.045,5.26.121.089.265.2.418.32a5.731,5.731,0,0,0,2.658,1.44h.039a5.743,5.743,0,0,0,2.66-1.442c.152-.119.3-.23.416-.318,5.269-3.854,5.956-4.4,7.093-5.3l.218-.173a1.026,1.026,0,0,0,.387-.8v-.807a2.034,2.034,0,0,0-2.024-2.04Z" transform="translate(0)" fill="#123659"/></g></g></g></svg>