<svg xmlns="http://www.w3.org/2000/svg" width="110" height="38.51" viewBox="0 0 110 38.51"><g transform="translate(-139.5 -52.49)"><g transform="translate(-5.5)"><g transform="translate(161.101 -36.815)"><g transform="translate(46.795 89.305)"><g transform="translate(0 0)"><path d="M53.566,11.4l-.278,2.573A14.992,14.992,0,0,0,42.3,17.868,15.212,15.212,0,0,1,53.566,11.4Z" transform="translate(-21.228 -7.643)" fill="#f6cfc8"/><path d="M39.3,17.683A16.739,16.739,0,0,1,50.358,8.642L49.662,6C49.662,5.93,39.578,8.99,39.3,17.683Z" transform="translate(-20.314 -5.998)" fill="#f6cfc8"/><path d="M56.888,21.1S53.411,17.483,45.9,19.43a11.825,11.825,0,0,1,12.866-.556Z" transform="translate(-22.325 -9.414)" fill="#f6cfc8"/><path d="M17.9,11.4l.278,2.573a14.992,14.992,0,0,1,10.988,3.894A15.031,15.031,0,0,0,17.9,11.4Z" transform="translate(-13.797 -7.643)" fill="#f6cfc8"/><path d="M32.358,17.683A16.739,16.739,0,0,0,21.3,8.642L22,6C22,5.93,32.01,8.99,32.358,17.683Z" transform="translate(-14.832 -5.998)" fill="#f6cfc8"/><path d="M13.878,21.1s3.477-3.616,10.988-1.669A11.825,11.825,0,0,0,12,18.873Z" transform="translate(-12 -9.414)" fill="#f6cfc8"/></g></g></g><text transform="translate(145 61)" fill="#f6cfc8" font-size="25" font-family="Montserrat-SemiBold, Montserrat" font-weight="600" letter-spacing="0.09em"><tspan x="0" y="24">SEEVITA</tspan></text></g></g></svg>