<svg xmlns="http://www.w3.org/2000/svg" xmlns:xlink="http://www.w3.org/1999/xlink" width="1280" height="800" viewBox="0 0 1280 800"><defs><filter id="a" x="176.5" y="-4.5" width="927" height="815" filterUnits="userSpaceOnUse"><feOffset dy="3" input="SourceAlpha"/><feGaussianBlur stdDeviation="2.5" result="b"/><feFlood flood-opacity="0.349"/><feComposite operator="in" in2="b"/><feComposite in="SourceGraphic"/></filter><filter id="c" x="841.069" y="310" width="222.431" height="49.646" filterUnits="userSpaceOnUse"><feOffset dy="1" input="SourceAlpha"/><feGaussianBlur stdDeviation="1.5" result="d"/><feFlood flood-opacity="0.349"/><feComposite operator="in" in2="d"/><feComposite in="SourceGraphic"/></filter><clipPath id="f"><rect width="1280" height="800"/></clipPath></defs><g id="e" clip-path="url(#f)"><rect width="1280" height="800" fill="#f5f5f5"/><g transform="matrix(1, 0, 0, 1, 0, 0)" filter="url(#a)"><rect width="912" height="800" transform="translate(184)" fill="#fff"/></g><line x2="910" transform="translate(184.5 300.5)" fill="none" stroke="#eaebec" stroke-width="1" stroke-dasharray="4"/><g transform="translate(561.025 -33)"><g transform="translate(258.5 346.5)"><g transform="translate(26.044)"><g transform="matrix(1, 0, 0, 1, -845.57, -313.5)" filter="url(#c)"><rect width="213.43" height="40.645" rx="4" transform="translate(845.57 313.5)" fill="#208281"/></g></g><text transform="translate(54 25.311)" fill="#fff" font-size="14" font-family="Roboto-Regular, Roboto" letter-spacing="0.015em"><tspan x="0" y="0">SHOW ALL SERVICES </tspan></text></g><path d="M1.879,0,8.055,6.175,14.23,0,16.11,1.879,8.055,9.934,0,1.879Z" transform="translate(465.814 361.798)" fill="#fff"/></g><text transform="translate(224 66.5)" fill="#205284" font-size="33" font-family="Montserrat-Regular, Montserrat" letter-spacing="0.03em"><tspan x="0" y="0">I&apos;ve served by</tspan></text><text transform="translate(224 131)" fill="#205284" font-size="26" font-family="Montserrat-Regular, Montserrat"><tspan x="0" y="0">reviewing conference submissions</tspan></text><text transform="translate(991 238)" fill="#5a5a5a" font-size="18" font-family="Roboto-Regular, Roboto"><tspan x="0" y="0">2018-19</tspan></text><text transform="translate(224 238)" fill="#5a5a5a" font-size="18" font-family="Roboto-Regular, Roboto"><tspan x="0" y="0">Artificial Intelligence in Education</tspan></text><text transform="translate(873.37 238)" fill="#5a5a5a" font-size="18" font-family="Roboto-Regular, Roboto"><tspan x="0" y="0">1X</tspan></text><text transform="translate(991 282.188)" fill="#5a5a5a" font-size="18" font-family="Roboto-Regular, Roboto"><tspan x="0" y="0">2017-19</tspan></text><text transform="translate(223 282.188)" fill="#5a5a5a" font-size="18" font-family="Roboto-Regular, Roboto"><tspan x="0" y="0">International Society of Learning Sciences</tspan></text><text transform="translate(873.17 282.188)" fill="#5a5a5a" font-size="18" font-family="Roboto-Regular, Roboto"><tspan x="0" y="0">5X</tspan></text><text transform="translate(623.455 238)" fill="#5a5a5a" font-size="18" font-family="Roboto-Regular, Roboto"><tspan x="0" y="0">General Reviewer</tspan></text><text transform="translate(623.455 282)" fill="#5a5a5a" font-size="18" font-family="Roboto-Regular, Roboto"><tspan x="0" y="0">General Reviewer</tspan></text><path d="M0,.814H834" transform="translate(223 206.686)" fill="#5a5a5a" stroke="#5a5a5a" stroke-width="1"/><text transform="translate(225 193)" fill="#5a5a5a" font-size="18" font-family="Roboto-Regular, Roboto"><tspan x="0" y="0">for</tspan></text><text transform="translate(853.37 193)" fill="#5a5a5a" font-size="18" font-family="Roboto-Regular, Roboto"><tspan x="0" y="0">often</tspan></text><text transform="translate(623.455 193)" fill="#5a5a5a" font-size="18" font-family="Roboto-Regular, Roboto"><tspan x="0" y="0">as a</tspan></text><text transform="translate(1003 193)" fill="#5a5a5a" font-size="18" font-family="Roboto-Regular, Roboto"><tspan x="0" y="0">during</tspan></text><path d="M0,.814H834" transform="translate(223 166.686)" fill="#575151" stroke="#5a5a5a" stroke-width="1"/></g></svg>