<svg xmlns="http://www.w3.org/2000/svg" width="40.461" height="40.466" viewBox="0 0 40.461 40.466"><g transform="translate(-401.803 -3860.249)"><path d="M20.23,40.466a122.941,122.941,0,0,1-12.994-.693A7.37,7.37,0,0,1,.69,33.227a122.744,122.744,0,0,1,0-25.989A7.372,7.372,0,0,1,7.236.692a122.355,122.355,0,0,1,25.99,0A7.369,7.369,0,0,1,39.77,7.238a122.581,122.581,0,0,1,0,25.989,7.367,7.367,0,0,1-6.545,6.546A122.965,122.965,0,0,1,20.23,40.466ZM9.816,27.813h0A12.451,12.451,0,0,0,28.911,17.289c0-.085,0-.172,0-.257,0-.051,0-.1,0-.154,0-.036,0-.071,0-.107A7.705,7.705,0,0,0,31,14.521a7.9,7.9,0,0,1-2.272.63l-.009-.053A4.24,4.24,0,0,0,30.4,12.809a8.531,8.531,0,0,1-2.024.847,5.981,5.981,0,0,1-.714.146A4.405,4.405,0,0,0,20.1,16.878c0,.1,0,.184.007.261a4.255,4.255,0,0,0,.08.62,12.313,12.313,0,0,1-8.95-4.47,5.2,5.2,0,0,0-.569,2,4.1,4.1,0,0,0,1.9,3.757s0,0-.007,0h-.009a4.509,4.509,0,0,1-2.029-.544,4.313,4.313,0,0,0,.386,1.8,4.638,4.638,0,0,0,3.2,2.545s-.009,0-.024.007a5.991,5.991,0,0,1-1.242.155,1.884,1.884,0,0,1-.737-.119,4.243,4.243,0,0,0,4.007,3.046l0,.006a8.823,8.823,0,0,1-5.536,1.9C10.33,27.844,10.072,27.834,9.816,27.813Z" transform="translate(401.803 3860.249)" fill="#123659"/></g></svg>