<svg xmlns="http://www.w3.org/2000/svg" width="75.038" height="33.625" viewBox="0 0 75.038 33.625"><g transform="translate(0)"><path d="M25.41,45.012H20.881l-5.9-6.793H11.274v6.793H7.5V24.7h9.676c4.8,0,7.274,3.225,7.274,6.725A6.054,6.054,0,0,1,19.3,37.807l6.107,6.931ZM11.274,28.337v6.519h5.833a3.209,3.209,0,0,0,3.5-3.225,3.173,3.173,0,0,0-3.5-3.225H11.274Z" transform="translate(-7.5 -11.867)" fill="#463d3d"/><path d="M35.9,45.043V24.8h3.774V45.043Z" transform="translate(-15.834 -11.898)" fill="#463d3d"/><path d="M59.556,29.358a5.778,5.778,0,0,0-4.8-2.264c-2.813,0-4.186,1.167-4.186,2.676,0,1.784,2.059,2.265,4.529,2.539,4.255.549,8.166,1.647,8.166,6.45,0,4.529-3.98,6.45-8.509,6.45-4.117,0-7.342-1.3-8.852-5.009l3.157-1.647c.892,2.2,3.225,3.225,5.7,3.225,2.4,0,4.666-.823,4.666-3.019,0-1.921-1.99-2.676-4.666-2.951-4.117-.48-7.96-1.578-7.96-6.107,0-4.186,4.117-5.9,7.823-5.9,3.157,0,6.45.892,7.96,4.049Z" transform="translate(-18.394 -11.584)" fill="#463d3d"/><path d="M89.193,45.112V36.877h-9.95v8.166H75.4V24.8h3.843v8.509h9.95V24.8h3.774V45.043H89.193Z" transform="translate(-27.073 -11.898)" fill="#463d3d"/><path d="M106.3,45.043V24.8h3.774V45.043Z" transform="translate(-35.036 -11.898)" fill="#463d3d"/><path d="M53.417,11.4l-.274,2.539A14.793,14.793,0,0,0,42.3,17.782,15.01,15.01,0,0,1,53.417,11.4Z" transform="translate(-17.842 -7.693)" fill="#463d3d"/><path d="M39.3,17.528A16.516,16.516,0,0,1,50.211,8.607L49.525,6C49.525,5.931,39.574,8.95,39.3,17.528Z" transform="translate(-16.901 -5.998)" fill="#463d3d"/><path d="M56.742,21.047S53.311,17.479,45.9,19.4a11.668,11.668,0,0,1,12.695-.549Z" transform="translate(-18.972 -9.518)" fill="#463d3d"/><path d="M17.9,11.4l.274,2.539a14.793,14.793,0,0,1,10.842,3.843A14.831,14.831,0,0,0,17.9,11.4Z" transform="translate(-10.186 -7.693)" fill="#463d3d"/><path d="M32.211,17.528A16.516,16.516,0,0,0,21.3,8.607L21.986,6C21.986,5.931,31.868,8.95,32.211,17.528Z" transform="translate(-11.253 -5.998)" fill="#463d3d"/><path d="M13.853,21.047s3.431-3.568,10.842-1.647A11.668,11.668,0,0,0,12,18.851Z" transform="translate(-8.334 -9.518)" fill="#463d3d"/></g></svg>