<svg xmlns="http://www.w3.org/2000/svg" width="85" height="38.09" viewBox="0 0 85 38.09"><path d="M27.788,47.708h-5.13l-6.685-7.7h-4.2v7.7H7.5V24.7H18.46c5.441,0,8.239,3.653,8.239,7.618a6.858,6.858,0,0,1-5.83,7.229L27.788,47.4ZM11.775,28.82V36.2h6.607a3.635,3.635,0,0,0,3.964-3.653A3.6,3.6,0,0,0,18.382,28.9H11.775Z" transform="translate(-7.5 -10.163)" fill="#463d3d"/><path d="M35.9,47.731V24.8h4.275V47.731Z" transform="translate(-13.17 -10.185)" fill="#463d3d"/><path d="M61.368,30.1a6.545,6.545,0,0,0-5.441-2.565c-3.187,0-4.742,1.321-4.742,3.032,0,2.021,2.332,2.565,5.13,2.876,4.819.622,9.25,1.866,9.25,7.307,0,5.13-4.508,7.307-9.639,7.307-4.664,0-8.317-1.477-10.027-5.674l3.576-1.866c1.011,2.487,3.653,3.653,6.452,3.653,2.721,0,5.286-.933,5.286-3.42,0-2.176-2.254-3.032-5.286-3.342-4.664-.544-9.017-1.788-9.017-6.918,0-4.742,4.664-6.685,8.861-6.685,3.576,0,7.307,1.011,9.017,4.586Z" transform="translate(-14.742 -9.963)" fill="#463d3d"/><path d="M91.024,47.808V38.481H79.753v9.25H75.4V24.8h4.353v9.639H91.024V24.8H95.3V47.731H91.024Z" transform="translate(-20.657 -10.185)" fill="#463d3d"/><path d="M106.3,47.731V24.8h4.275V47.731Z" transform="translate(-25.575 -10.185)" fill="#463d3d"/><path d="M54.892,11.4l-.311,2.876A16.756,16.756,0,0,0,42.3,18.629,17,17,0,0,1,54.892,11.4Z" transform="translate(-14.595 -7.201)" fill="#463d3d"/><path d="M39.3,19.058A18.709,18.709,0,0,1,51.659,8.953L50.882,6C50.882,5.922,39.611,9.342,39.3,19.058Z" transform="translate(-13.927 -5.998)" fill="#463d3d"/><path d="M58.181,21.556S54.295,17.514,45.9,19.691a13.217,13.217,0,0,1,14.38-.622Z" transform="translate(-15.397 -8.496)" fill="#463d3d"/><path d="M17.9,11.4l.311,2.876a16.756,16.756,0,0,1,12.281,4.353A16.8,16.8,0,0,0,17.9,11.4Z" transform="translate(-9.162 -7.201)" fill="#463d3d"/><path d="M33.659,19.058A18.709,18.709,0,0,0,21.3,8.953L22.077,6C22.077,5.922,33.271,9.342,33.659,19.058Z" transform="translate(-9.919 -5.998)" fill="#463d3d"/><path d="M14.1,21.556s3.887-4.042,12.281-1.866A13.217,13.217,0,0,0,12,19.069Z" transform="translate(-7.848 -8.496)" fill="#463d3d"/></svg>