<svg xmlns="http://www.w3.org/2000/svg" xmlns:xlink="http://www.w3.org/1999/xlink" width="1280" height="800" viewBox="0 0 1280 800"><defs><filter id="a" x="176.5" y="-4.5" width="927" height="815" filterUnits="userSpaceOnUse"><feOffset dy="3" input="SourceAlpha"/><feGaussianBlur stdDeviation="2.5" result="b"/><feFlood flood-opacity="0.349"/><feComposite operator="in" in2="b"/><feComposite in="SourceGraphic"/></filter><clipPath id="d"><rect width="1280" height="800"/></clipPath></defs><g id="c" clip-path="url(#d)"><rect width="1280" height="800" fill="#f5f5f5"/><g transform="matrix(1, 0, 0, 1, 0, 0)" filter="url(#a)"><rect width="912" height="800" transform="translate(184)" fill="#fff"/></g><text transform="translate(223 66)" fill="#205284" font-size="33" font-family="Montserrat-Regular, Montserrat" letter-spacing="0.03em"><tspan x="0" y="0">I&apos;m recognized by</tspan></text><text transform="translate(1016 399.482)" fill="#5a5a5a" font-size="18" font-family="Roboto-Regular, Roboto"><tspan x="0" y="0">2010</tspan></text><text transform="translate(223 399.482)" fill="#5a5a5a" font-size="18" font-family="Roboto-Regular, Roboto"><tspan x="0" y="0">Temple University</tspan></text><text transform="translate(864.044 399.482)" fill="#5a5a5a" font-size="18" font-family="Roboto-Regular, Roboto"><tspan x="0" y="0">10,000</tspan></text><text transform="translate(1016 355.6)" fill="#5a5a5a" font-size="18" font-family="Roboto-Regular, Roboto"><tspan x="0" y="0">2013</tspan></text><text transform="translate(478.455 355.6)" fill="#5a5a5a" font-size="18" font-family="Roboto-Regular, Roboto"><tspan x="0" y="0">CARAS UG Research Travel Grant</tspan></text><text transform="translate(873.612 355.6)" fill="#5a5a5a" font-size="18" font-family="Roboto-Regular, Roboto"><tspan x="0" y="0">1,000</tspan></text><text transform="translate(1016 311.907)" fill="#5a5a5a" font-size="18" font-family="Roboto-Regular, Roboto"><tspan x="0" y="0">2014</tspan></text><text transform="translate(223 311.907)" fill="#5a5a5a" font-size="18" font-family="Roboto-Regular, Roboto"><tspan x="0" y="0">City University of NY</tspan></text><text transform="translate(855 311.907)" fill="#5a5a5a" font-size="18" font-family="Roboto-Regular, Roboto"><tspan x="0" y="0">125,000</tspan></text><text transform="translate(1016 267.547)" fill="#5a5a5a" font-size="18" font-family="Roboto-Regular, Roboto"><tspan x="0" y="0">2015</tspan></text><text transform="translate(223 267.547)" fill="#5a5a5a" font-size="18" font-family="Roboto-Regular, Roboto"><tspan x="0" y="0">Carnegie Mellon University</tspan></text><text transform="translate(872.612 267.547)" fill="#5a5a5a" font-size="18" font-family="Roboto-Regular, Roboto"><tspan x="0" y="0">1,000</tspan></text><text transform="translate(478.455 267.547)" fill="#5a5a5a" font-size="18" font-family="Roboto-Regular, Roboto"><tspan x="0" y="0">Summer LearnLab Scholarship</tspan></text><text transform="translate(478.455 311.547)" fill="#5a5a5a" font-size="18" font-family="Roboto-Regular, Roboto"><tspan x="0" y="0">CUNY Graduate Fellowship</tspan></text><text transform="translate(223 355.907)" fill="#5a5a5a" font-size="18" font-family="Roboto-Regular, Roboto"><tspan x="0" y="0">Temple University</tspan></text><text transform="translate(478.455 399.547)" fill="#5a5a5a" font-size="18" font-family="Roboto-Regular, Roboto"><tspan x="0" y="0">Merit Scholarship</tspan></text><path d="M0,0H837" transform="translate(223 418.5)" fill="#5a5a5a" stroke="#5a5a5a" stroke-width="1"/><text transform="translate(1016 179)" fill="#5a5a5a" font-size="18" font-family="Roboto-Regular, Roboto"><tspan x="0" y="0">2018</tspan></text><text transform="translate(223 179)" fill="#5a5a5a" font-size="18" font-family="Roboto-Regular, Roboto"><tspan x="0" y="0">Madhacks 2018</tspan></text><text transform="translate(889 179)" fill="#5a5a5a" font-size="18" font-family="Roboto-Regular, Roboto"><tspan x="0" y="0">100</tspan></text><text transform="translate(1016 223.188)" fill="#5a5a5a" font-size="18" font-family="Roboto-Regular, Roboto"><tspan x="0" y="0">2018</tspan></text><text transform="translate(223 223.188)" fill="#5a5a5a" font-size="18" font-family="Roboto-Regular, Roboto"><tspan x="0" y="0">National Science Foundation</tspan></text><text transform="translate(863.8 223.188)" fill="#5a5a5a" font-size="18" font-family="Roboto-Regular, Roboto"><tspan x="0" y="0">34,000</tspan></text><text transform="translate(478 179)" fill="#5a5a5a" font-size="18" font-family="Roboto-Regular, Roboto"><tspan x="0" y="0">Wolfram Award &amp; Most Viable Business</tspan></text><text transform="translate(478 223.188)" fill="#5a5a5a" font-size="18" font-family="Roboto-Regular, Roboto"><tspan x="0" y="0">LUCID Fellowship</tspan></text><text transform="translate(1005 129)" fill="#5a5a5a" font-size="18" font-family="Roboto-Regular, Roboto"><tspan x="0" y="0">during</tspan></text><text transform="translate(223 129)" fill="#5a5a5a" font-size="18" font-family="Roboto-Regular, Roboto"><tspan x="0" y="0">the group</tspan></text><text transform="translate(849 129)" fill="#5a5a5a" font-size="18" font-family="Roboto-Regular, Roboto"><tspan x="0" y="0">given ($)</tspan></text><text transform="translate(478 129)" fill="#5a5a5a" font-size="18" font-family="Roboto-Regular, Roboto"><tspan x="0" y="0">they awarded me</tspan></text><path d="M0,0H835" transform="translate(223 148.5)" fill="#5a5a5a" stroke="#5a5a5a" stroke-width="1"/><path d="M0,0H835" transform="translate(223 98.5)" fill="#575151" stroke="#5a5a5a" stroke-width="1"/><text transform="translate(223 449)" fill="#5a5a5a" font-size="18" font-family="Roboto-Regular, Roboto"><tspan x="0" y="0">5 groups</tspan></text><text transform="translate(855 449)" fill="#5a5a5a" font-size="18" font-family="Roboto-Regular, Roboto"><tspan x="0" y="0">171,100</tspan></text><path d="M0,0H837" transform="translate(223 468.5)" fill="#575151" stroke="#5a5a5a" stroke-width="1"/><text transform="translate(478.455 448.547)" fill="#5a5a5a" font-size="18" font-family="Roboto-Regular, Roboto"><tspan x="0" y="0">7 awards</tspan></text><text transform="translate(1000 449)" fill="#5a5a5a" font-size="18" font-family="Roboto-Regular, Roboto"><tspan x="0" y="0">8 years</tspan></text></g></svg>