<svg xmlns="http://www.w3.org/2000/svg" xmlns:xlink="http://www.w3.org/1999/xlink" width="1280" height="800" viewBox="0 0 1280 800"><defs><filter id="a" x="176.5" y="-4.5" width="927" height="815" filterUnits="userSpaceOnUse"><feOffset dy="3" input="SourceAlpha"/><feGaussianBlur stdDeviation="2.5" result="b"/><feFlood flood-opacity="0.349"/><feComposite operator="in" in2="b"/><feComposite in="SourceGraphic"/></filter><clipPath id="d"><rect width="1280" height="800"/></clipPath></defs><g id="c" clip-path="url(#d)"><rect width="1280" height="800" fill="#f5f5f5"/><g transform="matrix(1, 0, 0, 1, 0, 0)" filter="url(#a)"><rect width="912" height="800" transform="translate(184)" fill="#fff"/></g><text transform="translate(1010 575.547)" fill="#5a5a5a" font-size="18" font-family="Roboto-Regular, Roboto"><tspan x="0" y="0">2018</tspan></text><text transform="translate(223 569.547)" fill="#5a5a5a" font-size="18" font-family="Roboto-Regular, Roboto"><tspan x="0" y="0">Robert Dean</tspan></text><text transform="translate(423.738 569.547)" fill="#5a5a5a" font-size="18" font-family="Roboto-Regular, Roboto"><tspan x="0" y="0">programmer</tspan></text><text transform="translate(988 487.188)" fill="#5a5a5a" font-size="18" font-family="Roboto-Regular, Roboto"><tspan x="0" y="0">2018-19</tspan></text><text transform="translate(223 481.188)" fill="#5a5a5a" font-size="18" font-family="Roboto-Regular, Roboto"><tspan x="0" y="0">Brock Wroblewski</tspan></text><text transform="translate(424.17 481.188)" fill="#5a5a5a" font-size="18" font-family="Roboto-Regular, Roboto"><tspan x="0" y="0">programmer</tspan></text><text transform="translate(988 660)" fill="#5a5a5a" font-size="18" font-family="Roboto-Regular, Roboto"><tspan x="0" y="0">2016-17</tspan></text><text transform="translate(223 659)" fill="#5a5a5a" font-size="18" font-family="Roboto-Regular, Roboto"><tspan x="0" y="0">Kaitlin Mork</tspan></text><text transform="translate(424.37 659)" fill="#5a5a5a" font-size="18" font-family="Roboto-Regular, Roboto"><tspan x="0" y="0">research assistant</tspan></text><text transform="translate(223 375)" fill="#205284" font-size="26" font-family="Montserrat-Regular, Montserrat"><tspan x="0" y="0">and as a mentor</tspan></text><text transform="translate(793 660.188)" fill="#5a5a5a" font-size="18" font-family="Roboto-Regular, Roboto"><tspan x="0" y="0">UC - Boulder</tspan></text><text transform="translate(988 531.188)" fill="#5a5a5a" font-size="18" font-family="Roboto-Regular, Roboto"><tspan x="0" y="0">2018-19</tspan></text><text transform="translate(223 525.188)" fill="#5a5a5a" font-size="18" font-family="Roboto-Regular, Roboto"><tspan x="0" y="0">Utkarsh Maheshwari</tspan></text><text transform="translate(424.17 525.188)" fill="#5a5a5a" font-size="18" font-family="Roboto-Regular, Roboto"><tspan x="0" y="0">engineer</tspan></text><text transform="translate(1010 620.547)" fill="#5a5a5a" font-size="18" font-family="Roboto-Regular, Roboto"><tspan x="0" y="0">2018</tspan></text><text transform="translate(223 614.547)" fill="#5a5a5a" font-size="18" font-family="Roboto-Regular, Roboto"><tspan x="0" y="0">Kelsey Wenzel</tspan></text><text transform="translate(423.738 614.547)" fill="#5a5a5a" font-size="18" font-family="Roboto-Regular, Roboto"><tspan x="0" y="0">research assistant</tspan></text><text transform="translate(618 482.188)" fill="#5a5a5a" font-size="18" font-family="Roboto-Regular, Roboto"><tspan x="0" y="0">B.S. student</tspan></text><text transform="translate(618 526.188)" fill="#5a5a5a" font-size="18" font-family="Roboto-Regular, Roboto"><tspan x="0" y="0">B.S. student</tspan></text><text transform="translate(618 570.188)" fill="#5a5a5a" font-size="18" font-family="Roboto-Regular, Roboto"><tspan x="0" y="0">B.S. student</tspan></text><text transform="translate(618 615.188)" fill="#5a5a5a" font-size="18" font-family="Roboto-Regular, Roboto"><tspan x="0" y="0">B.S. student</tspan></text><text transform="translate(618 660.188)" fill="#5a5a5a" font-size="18" font-family="Roboto-Regular, Roboto"><tspan x="0" y="0">Ph.D. student</tspan></text><path d="M0,0H834" transform="translate(223 451.5)" fill="#5a5a5a" stroke="#5a5a5a" stroke-width="1"/><text transform="translate(1003 439)" fill="#5a5a5a" font-size="18" font-family="Roboto-Regular, Roboto"><tspan x="0" y="0">during</tspan></text><text transform="translate(223 439)" fill="#5a5a5a" font-size="18" font-family="Roboto-Regular, Roboto"><tspan x="0" y="0">to</tspan></text><text transform="translate(793 439)" fill="#5a5a5a" font-size="18" font-family="Roboto-Regular, Roboto"><tspan x="0" y="0">at</tspan></text><text transform="translate(618 439.188)" fill="#5a5a5a" font-size="18" font-family="Roboto-Regular, Roboto"><tspan x="0" y="0">now they&apos;re</tspan></text><text transform="translate(793 482.188)" fill="#5a5a5a" font-size="18" font-family="Roboto-Regular, Roboto"><tspan x="0" y="0">UW - Madison</tspan></text><text transform="translate(793 526.188)" fill="#5a5a5a" font-size="18" font-family="Roboto-Regular, Roboto"><tspan x="0" y="0">UW - Madison</tspan></text><text transform="translate(793 570.188)" fill="#5a5a5a" font-size="18" font-family="Roboto-Regular, Roboto"><tspan x="0" y="0">UW - Madison</tspan></text><text transform="translate(793 615.188)" fill="#5a5a5a" font-size="18" font-family="Roboto-Regular, Roboto"><tspan x="0" y="0">UW - Madison</tspan></text><path d="M0,0H834.5" transform="translate(223 678.5)" fill="#5a5a5a" stroke="#5a5a5a" stroke-width="1"/><text transform="translate(424.37 439)" fill="#5a5a5a" font-size="18" font-family="Roboto-Regular, Roboto"><tspan x="0" y="0">who was a(n)</tspan></text><text transform="translate(224 706)" fill="#5a5a5a" font-size="18" font-family="Roboto-Regular, Roboto"><tspan x="0" y="0">5 mentees</tspan></text><text transform="translate(793.37 706)" fill="#5a5a5a" font-size="18" font-family="Roboto-Regular, Roboto"><tspan x="0" y="0">4 completed</tspan></text><path d="M0,0H834" transform="translate(223 413.497)" fill="#5a5a5a" stroke="#5a5a5a" stroke-width="1"/><path d="M834.5,0" transform="translate(223 724.5)" fill="#302e2e" stroke="#302e2e" stroke-width="1"/><path d="M0,0H834" transform="translate(224 315.5)" fill="#5a5a5a" stroke="#5a5a5a" stroke-width="1"/><path d="M0,0H834.5" transform="translate(223 722.5)" fill="#575151" stroke="#5a5a5a" stroke-width="1"/><text transform="translate(618.37 706)" fill="#5a5a5a" font-size="18" font-family="Roboto-Regular, Roboto"><tspan x="0" y="0">1 active</tspan></text><text transform="translate(992.37 706)" fill="#5a5a5a" font-size="18" font-family="Roboto-Regular, Roboto"><tspan x="0" y="0">3 years</tspan></text><text transform="translate(223.5 85.5)" fill="#205284" font-size="33" font-family="Montserrat-Regular, Montserrat" letter-spacing="0.03em"><tspan x="0" y="0">I&apos;ve advised</tspan></text><text transform="translate(1017 257)" fill="#5a5a5a" font-size="18" font-family="Roboto-Regular, Roboto"><tspan x="0" y="0">2019</tspan></text><text transform="translate(223.456 257)" fill="#5a5a5a" font-size="18" font-family="Roboto-Regular, Roboto"><tspan x="0" y="0">Anonyomous</tspan></text><text transform="translate(424.37 257)" fill="#5a5a5a" font-size="18" font-family="Roboto-Regular, Roboto"><tspan x="0" y="0">doctoral student</tspan></text><text transform="translate(991 301.188)" fill="#5a5a5a" font-size="18" font-family="Roboto-Regular, Roboto"><tspan x="0" y="0">2015-19</tspan></text><text transform="translate(223.456 301.188)" fill="#5a5a5a" font-size="18" font-family="Roboto-Regular, Roboto"><tspan x="0" y="0">Soo-hyun Im</tspan></text><path d="M0,0H834" transform="translate(223 226.5)" fill="#5a5a5a" stroke="#5a5a5a" stroke-width="1"/><text transform="translate(224 148)" fill="#205284" font-size="26" font-family="Montserrat-Regular, Montserrat"><tspan x="0" y="0">as a consultant</tspan></text><text transform="translate(793 257)" fill="#5a5a5a" font-size="18" font-family="Roboto-Regular, Roboto"><tspan x="0" y="0">private location</tspan></text><text transform="translate(793 301.188)" fill="#5a5a5a" font-size="18" font-family="Roboto-Regular, Roboto"><tspan x="0" y="0">Columbia University</tspan></text><text transform="translate(618 301.188)" fill="#5a5a5a" font-size="18" font-family="Roboto-Regular, Roboto"><tspan x="0" y="0">post-doc fellow</tspan></text><text transform="translate(618 257.188)" fill="#5a5a5a" font-size="18" font-family="Roboto-Regular, Roboto"><tspan x="0" y="0">higher ed staff</tspan></text><text transform="translate(1004 196)" fill="#5a5a5a" font-size="18" font-family="Roboto-Regular, Roboto"><tspan x="0" y="17">during</tspan></text><text transform="translate(223.456 196)" fill="#5a5a5a" font-size="18" font-family="Roboto-Regular, Roboto"><tspan x="0" y="17">to</tspan></text><text transform="translate(424.37 196)" fill="#5a5a5a" font-size="18" font-family="Roboto-Regular, Roboto"><tspan x="0" y="17">who was </tspan></text><text transform="translate(793 196)" fill="#5a5a5a" font-size="18" font-family="Roboto-Regular, Roboto"><tspan x="0" y="17">at</tspan></text><text transform="translate(618 196.188)" fill="#5a5a5a" font-size="18" font-family="Roboto-Regular, Roboto"><tspan x="0" y="17">now they&apos;re</tspan></text><text transform="translate(424.37 301)" fill="#5a5a5a" font-size="18" font-family="Roboto-Regular, Roboto"><tspan x="0" y="0">doctoral student</tspan></text><path d="M0,0H834" transform="translate(223 186.5)" fill="#575151" stroke="#5a5a5a" stroke-width="1"/></g></svg>