<svg xmlns="http://www.w3.org/2000/svg" xmlns:xlink="http://www.w3.org/1999/xlink" width="35.809" height="35.809" viewBox="0 0 35.809 35.809"><defs><linearGradient id="a" x1="0.5" y1="0.994" x2="0.5" y2="-0.002" gradientUnits="objectBoundingBox"><stop offset="0" stop-color="#9dcaff"/><stop offset="1" stop-color="#345ab4"/></linearGradient></defs><path d="M35.809,8.269V27.54a8.269,8.269,0,0,1-8.269,8.269H8.269A8.269,8.269,0,0,1,0,27.54V8.269A8.269,8.269,0,0,1,8.269,0H27.54A8.269,8.269,0,0,1,35.809,8.269Z" fill="url(#a)"/><path d="M11.989,39.249A8,8,0,0,1,4,31.26V11.989A8,8,0,0,1,11.989,4H31.26a8,8,0,0,1,7.989,7.989V31.26a8,8,0,0,1-7.989,7.989Z" transform="translate(-3.72 -3.72)" fill="#575151"/><path d="M93.83,133.29l8.323,3.753,3.753,8.323,9.232-21.307Z" transform="translate(-87.268 -115.382)" fill="#1a1a1a" opacity="0.3"/><path d="M88.29,127.751l8.323,3.752,3.753,8.323,9.232-21.307Z" transform="translate(-82.115 -110.23)" fill="#fff"/><path d="M220.276,118.519l-9.232,21.307-3.753-8.323Z" transform="translate(-192.794 -110.23)" fill="#fff"/><path d="M88.29,250.514l11.22.856-2.9,2.9Z" transform="translate(-82.115 -232.993)" fill="#fff"/><path d="M211.045,273.969l-.856-11.22-2.9,2.9Z" transform="translate(-192.794 -244.373)" fill="#fff"/></svg>