<svg xmlns="http://www.w3.org/2000/svg" width="103.253" height="52.498" viewBox="0 0 103.253 52.498"><path d="M141.452,52.63l.035,1.277h-.152c-.152-.822-.352-.953-1.429-.953v3.811a.566.566,0,0,0,.642.642v.179h-1.974v-.179a.566.566,0,0,0,.642-.642V52.954c-1.077,0-1.277.138-1.429.953h-.166l.035-1.277h3.825Z" transform="translate(-42.611 -16.296)" fill="#231f20"/><path d="M132.586,52.49a2.6,2.6,0,1,0,2.216,2.568A2.327,2.327,0,0,0,132.586,52.49Zm0,4.833c-.925,0-1.457-.891-1.457-2.278s.532-2.278,1.457-2.278,1.464.891,1.464,2.278-.532,2.292-1.464,2.292Z" transform="translate(-40.366 -16.252)" fill="#231f20"/><path d="M146.922,56.948l-1.754-4.418H145s-1.47,3.838-1.65,4.287a.69.69,0,0,1-.573.559v.18h1.381v-.18a.4.4,0,0,1-.421-.352.606.606,0,0,1,0-.186l.331-.891h1.719l.318.863a.76.76,0,0,1,.055.221.387.387,0,0,1-.442.352v.18h1.74v-.186a.642.642,0,0,1-.539-.428Zm-2.762-1.381.732-1.981.759,2.03h-1.464Z" transform="translate(-44.208 -16.265)" fill="#231f20"/><path d="M121.539,56.306a1.284,1.284,0,0,1-1.291.967h-.787c-.29,0-.414-.1-.414-.338V55.167h1.07a.69.69,0,0,1,.69.69h.166V54.124h-.179a.635.635,0,0,1-.642.69h-1.1V53.158a.214.214,0,0,1,.262-.2h.953a.828.828,0,0,1,.925.8h.193l-.041-1.118H117.77v.179a.539.539,0,0,1,.608.642v3.307a.545.545,0,0,1-.608.642v.179h3.659l.318-1.291h-.207Z" transform="translate(-36.465 -16.299)" fill="#231f20"/><path d="M127.462,52.477l.145,1.636h-.179c-.242-.808-.69-1.3-1.25-1.3a.628.628,0,0,0-.69.69,1.229,1.229,0,0,0,.69.967l.8.538a1.609,1.609,0,0,1,.69,1.25,1.381,1.381,0,0,1-1.381,1.381,6.683,6.683,0,0,1-1.042-.249.283.283,0,0,0-.235.249h-.1l-.207-1.65h.179c.3.842.746,1.339,1.381,1.339a.78.78,0,0,0,.808-.835,1.022,1.022,0,0,0-.538-.9l-.98-.69a1.319,1.319,0,0,1-.621-1.181,1.181,1.181,0,0,1,1.222-1.25c.331,0,.69.221.911.221a.221.221,0,0,0,.235-.221h.179Z" transform="translate(-38.61 -16.246)" fill="#231f20"/><path d="M113.055,52.63v.179a.642.642,0,0,1,.614.746v2.61l-2.575-3.535H110v.179a.628.628,0,0,1,.49.221l.145.193v3.321c0,.566-.193.863-.642.863v.179h1.581v-.179a.608.608,0,0,1-.614-.69V53.652l2.962,4.011h.1v-3.99c0-.628.255-.863.642-.863V52.63h-1.581Z" transform="translate(-34.056 -16.296)" fill="#231f20"/><path d="M105.076,52.63v.179a.642.642,0,0,1,.614.746v2.61l-2.575-3.535H102v.179a.628.628,0,0,1,.49.221l.145.193v3.321c0,.566-.193.863-.642.863v.179h1.588v-.179a.608.608,0,0,1-.621-.69V53.652l2.962,4.011h.1v-3.99c0-.628.255-.863.642-.863V52.63h-1.581Z" transform="translate(-31.579 -16.296)" fill="#231f20"/><path d="M93.641,50.479V50.3H92.108l-2,5.357L88.1,50.3h-1.56v.179c.69,0,.835.359.835,1.008v4.032c0,.932-.262,1.174-.849,1.174v.179h2.023v-.186c-.566,0-.835-.242-.835-1.174V51.3l2.071,5.578h.193L92.108,51.2v4.315c0,.932-.214,1.174-.8,1.174v.179h2.32v-.179c-.566,0-.787-.242-.787-1.174V51.37a.753.753,0,0,1,.8-.891Z" transform="translate(-26.792 -15.574)" fill="#231f20"/><path d="M98.966,53.452a.566.566,0,0,1,.642-.642v-.18H97.62v.179a.566.566,0,0,1,.642.642v3.307a.566.566,0,0,1-.642.642v.179h2v-.173a.566.566,0,0,1-.642-.642V53.452Z" transform="translate(-30.226 -16.296)" fill="#231f20"/><path d="M72.1,52.5a2.6,2.6,0,1,0,2.216,2.568A2.327,2.327,0,0,0,72.1,52.5Zm0,4.833c-.925,0-1.464-.891-1.464-2.278s.532-2.278,1.464-2.278,1.457.891,1.457,2.278-.525,2.292-1.457,2.292Z" transform="translate(-21.637 -16.255)" fill="#231f20"/><path d="M80.9,52.63H77.3v.179a.538.538,0,0,1,.6.642v3.307a.539.539,0,0,1-.6.642v.179h1.919v-.173a.566.566,0,0,1-.635-.642v-1.6h1.029a.69.69,0,0,1,.69.69h.166V54.121H80.3a.635.635,0,0,1-.642.69h-1.07V53.155a.214.214,0,0,1,.269-.221h.994a.828.828,0,0,1,.925.8h.166Z" transform="translate(-23.934 -16.296)" fill="#231f20"/><path d="M56.809,52.64l.041,1.277h-.166c-.152-.815-.352-.953-1.429-.953v3.811a.566.566,0,0,0,.642.642V57.6h-2v-.179a.566.566,0,0,0,.642-.642V52.964c-1.077,0-1.277.138-1.429.953H52.95l.035-1.277Z" transform="translate(-16.395 -16.299)" fill="#231f20"/><path d="M62.7,52.819V52.64h1.519v.179a1.063,1.063,0,0,0-.69.476L62.3,55.332v1.443a.559.559,0,0,0,.69.642V57.6H60.922v-.179a.559.559,0,0,0,.69-.642V55.395L60.3,53.323a.967.967,0,0,0-.69-.49V52.64h1.961v.179a.4.4,0,0,0-.463.262.614.614,0,0,0,.076.255l.946,1.622.98-1.7a.325.325,0,0,0,.041-.159C63.152,52.978,63.069,52.819,62.7,52.819Z" transform="translate(-18.457 -16.299)" fill="#231f20"/><path d="M45.848,52.48l.145,1.636h-.207c-.249-.808-.69-1.3-1.25-1.3a.628.628,0,0,0-.69.69,1.229,1.229,0,0,0,.69.967l.8.538a1.609,1.609,0,0,1,.69,1.25,1.381,1.381,0,0,1-1.381,1.381,6.692,6.692,0,0,1-.932-.242.283.283,0,0,0-.228.249h-.2L43.08,56h.18c.3.842.746,1.339,1.381,1.339a.78.78,0,0,0,.808-.835,1.022,1.022,0,0,0-.552-.9l-.98-.69a1.319,1.319,0,0,1-.621-1.181,1.181,1.181,0,0,1,1.222-1.25c.338,0,.69.221.911.221a.221.221,0,0,0,.235-.221h.18Z" transform="translate(-13.339 -16.249)" fill="#231f20"/><path d="M50.406,53.462a.566.566,0,0,1,.69-.642V52.64H49.08v.179a.566.566,0,0,1,.642.642v3.307a.566.566,0,0,1-.642.642v.179H51.1v-.173a.566.566,0,0,1-.69-.642Z" transform="translate(-15.196 -16.299)" fill="#231f20"/><path d="M32.9,56.3a1.284,1.284,0,0,1-1.284.967h-.794c-.29,0-.414-.1-.414-.338V55.157h1.07a.69.69,0,0,1,.69.69h.166V54.115h-.166a.635.635,0,0,1-.642.69h-1.1V53.148a.214.214,0,0,1,.269-.221h.953a.828.828,0,0,1,.925.8h.166l-.041-1.118H29.12v.179a.538.538,0,0,1,.608.642v3.307a.538.538,0,0,1-.608.642v.179h3.659l.324-1.291H32.9Z" transform="translate(-9.016 -16.289)" fill="#231f20"/><path d="M39.68,57.186c-.117-.138-1.215-1.643-1.457-1.981a1.243,1.243,0,0,0,1.167-1.284c0-.773-.58-1.291-1.636-1.291H35.8v.179a.538.538,0,0,1,.608.642v3.307a.545.545,0,0,1-.608.642v.179h1.919v-.173a.545.545,0,0,1-.608-.642V55.309h.38L39.1,57.6h1.084v-.166A.69.69,0,0,1,39.68,57.186Zm-2.568-2.175V53.341c0-.345.069-.428.449-.428A.96.96,0,0,1,38.7,53.942c0,.759-.573,1.07-1.429,1.07Z" transform="translate(-11.085 -16.296)" fill="#231f20"/><path d="M18.763,53.452a.566.566,0,0,1,.642-.642v-.18h-2v.179a.566.566,0,0,1,.642.642v3.307a.566.566,0,0,1-.642.642v.179h2v-.173a.566.566,0,0,1-.642-.642Z" transform="translate(-5.391 -16.296)" fill="#231f20"/><path d="M23.286,52.809V52.63H21.47v.179a.69.69,0,0,1,.608.518l1.788,4.342h.117s1.429-3.99,1.56-4.342a.69.69,0,0,1,.552-.518V52.63H24.715v.179a.407.407,0,0,1,.476.387.573.573,0,0,1-.041.193l-1.063,2.948-1.236-2.962a.608.608,0,0,1-.041-.221C22.809,52.927,22.975,52.809,23.286,52.809Z" transform="translate(-6.648 -16.296)" fill="#231f20"/><path d="M0,50.479c.538,0,.822.269.822,1.042v3.065a2.119,2.119,0,0,0,2.333,2.368,2.106,2.106,0,0,0,2.251-2.271V51.342a.69.69,0,0,1,.808-.863V50.3H4.225v.179c.552,0,.787.249.8.911s.048,2.423.048,3.452a1.643,1.643,0,0,1-1.767,1.7,1.643,1.643,0,0,1-1.754-1.8V51.287a.69.69,0,0,1,.773-.849V50.3H0Z" transform="translate(0 -15.574)" fill="#231f20"/><path d="M12.236,52.63v.179a.642.642,0,0,1,.614.766v2.61l-2.575-3.535H9.157v.18a.628.628,0,0,1,.49.221l.145.193v3.3c0,.566-.193.863-.642.863v.179h1.581v-.179a.608.608,0,0,1-.621-.69V53.652l2.962,4.011h.117v-3.99c0-.628.255-.863.642-.863V52.63Z" transform="translate(-2.833 -16.296)" fill="#231f20"/><path d="M19.26,67.22H21.1a3,3,0,0,1,0,5.992H19.26Zm1.781,4.909a1.912,1.912,0,1,0,0-3.825H20.5v3.825Z" transform="translate(-5.963 -20.813)" fill="#7a0019"/><path d="M28.11,70.429H29.3v.69a1.132,1.132,0,0,1,1.1-.759,1.2,1.2,0,0,1,.58.152l-.387,1.07a1.021,1.021,0,0,0-.483-.09c-.538,0-.828.249-.828,1.049v1.643H28.11Z" transform="translate(-8.704 -21.785)" fill="#7a0019"/><path d="M33.58,68.129a.746.746,0,1,1,.223.532A.753.753,0,0,1,33.58,68.129Zm.159,1.381h1.187v3.749H33.739V69.5Z" transform="translate(-10.397 -20.859)" fill="#7a0019"/><path d="M37,70.46h1.312l.532,1.118a5.9,5.9,0,0,1,.311.994,6.027,6.027,0,0,1,.29-.994l.511-1.118h1.208l-2,3.825h-.1Z" transform="translate(-11.456 -21.816)" fill="#7a0019"/><path d="M46.168,73.269a1.629,1.629,0,0,0,.946-.3l.69.732a2.237,2.237,0,0,1-1.6.552,1.963,1.963,0,1,1-.131-3.908,1.949,1.949,0,0,1,1.988,2.32H45.194A.884.884,0,0,0,46.168,73.269Zm.69-1.291a.69.69,0,0,0-.787-.69.8.8,0,0,0-.884.69h1.664Z" transform="translate(-13.624 -21.781)" fill="#7a0019"/><path d="M51.67,70.426h1.187v.614a1.284,1.284,0,0,1,1.187-.69c.822,0,1.381.6,1.381,1.664v2.168H54.238V72.11a.573.573,0,0,0-.628-.69.69.69,0,0,0-.753.759v2H51.67Z" transform="translate(-15.998 -21.782)" fill="#7a0019"/><path d="M62.752,71.931V70.55H62.2v-.967h.552V67.63h1.181v1.954h.96v.987h-.925v1.381c0,.38.124.456.311.456a.732.732,0,0,0,.414-.159l.449.828a1.581,1.581,0,0,1-1.049.345C63.332,73.408,62.752,73.056,62.752,71.931Z" transform="translate(-19.259 -20.94)" fill="#7a0019"/><path d="M67.718,72.205a2.071,2.071,0,1,1,2.071,1.947,1.968,1.968,0,0,1-2.071-1.947Zm2.913,0a.856.856,0,1,0-.39.831A.856.856,0,0,0,70.632,72.205Z" transform="translate(-20.966 -21.677)" fill="#7a0019"/><path d="M79.19,67.22h1.843a3,3,0,1,1,0,5.992H79.19Zm1.781,4.909a1.912,1.912,0,1,0,0-3.825H80.44v3.825h.545Z" transform="translate(-24.519 -20.813)" fill="#7a0019"/><path d="M88.17,68.139a.746.746,0,1,1,.221.537A.739.739,0,0,1,88.17,68.139Zm.159,1.381h1.187v3.749H88.329V69.512Z" transform="translate(-27.3 -20.869)" fill="#7a0019"/><path d="M91.78,73.559l.69-.614a1.381,1.381,0,0,0,.932.394c.387,0,.511-.069.511-.228s-.228-.242-.835-.38a1.215,1.215,0,0,1-1.084-1.194c0-.842.649-1.187,1.457-1.187a1.816,1.816,0,0,1,1.381.518l-.635.69a1.153,1.153,0,0,0-.69-.283c-.269,0-.407.069-.407.221s.235.235.746.352A1.284,1.284,0,0,1,95.08,73.02c0,.69-.359,1.25-1.54,1.25A2.071,2.071,0,0,1,91.78,73.559Z" transform="translate(-28.417 -21.781)" fill="#7a0019"/><path d="M98,72.295a1.94,1.94,0,0,1,2.071-1.947,1.829,1.829,0,0,1,1.574.746l-.842.69a.884.884,0,0,0-.732-.394.815.815,0,0,0-.835.9.828.828,0,0,0,.835.932.987.987,0,0,0,.759-.352l.8.69a1.9,1.9,0,0,1-1.56.683A1.947,1.947,0,0,1,98,72.295Z" transform="translate(-30.343 -21.78)" fill="#7a0019"/><path d="M104.588,72.205a2.071,2.071,0,1,1,2.071,1.947,1.968,1.968,0,0,1-2.071-1.947Zm2.913,0a.5.5,0,1,0,.007,0Z" transform="translate(-32.382 -21.677)" fill="#7a0019"/><path d="M111.5,70.46h1.312l.532,1.118a5.8,5.8,0,0,1,.311.994,6.056,6.056,0,0,1,.29-.994l.511-1.118h1.208l-2.016,3.825h-.11Z" transform="translate(-34.523 -21.816)" fill="#7a0019"/><path d="M120.638,73.266a1.623,1.623,0,0,0,.946-.3l.69.732a2.237,2.237,0,0,1-1.6.552,1.981,1.981,0,0,1-2.2-1.968,2.04,2.04,0,1,1,4.059.373h-2.865A.884.884,0,0,0,120.638,73.266Zm.69-1.291a.69.69,0,0,0-.78-.69.8.8,0,0,0-.884.69h1.664Z" transform="translate(-36.681 -21.778)" fill="#7a0019"/><path d="M126.14,70.429h1.187v.69a1.132,1.132,0,0,1,1.1-.759,1.194,1.194,0,0,1,.58.152l-.38,1.084a1.022,1.022,0,0,0-.456-.117c-.539,0-.828.249-.828,1.049v1.657h-1.187V70.429Z" transform="translate(-39.056 -21.785)" fill="#7a0019"/><path d="M131.12,70.922l.166-.09a.511.511,0,0,0,.483.3.345.345,0,0,0,.387-.318.442.442,0,0,0-.352-.394l-.152-.069a.545.545,0,0,1-.414-.511.456.456,0,0,1,.5-.449.552.552,0,0,1,.511.283l-.159.1a.38.38,0,0,0-.345-.207.262.262,0,0,0-.3.269.366.366,0,0,0,.3.338l.152.069a.614.614,0,0,1,.469.573.518.518,0,0,1-.58.5A.69.69,0,0,1,131.12,70.922Z" transform="translate(-40.598 -21.484)" fill="#7a0019"/><path d="M133.5,69.38h0l.9,1.118.87-1.091h0v1.9h-.193V69.849a1.985,1.985,0,0,1-.131.193l-.566.69h0l-.559-.69a2.255,2.255,0,0,1-.138-.193v1.457H133.5Z" transform="translate(-41.335 -21.482)" fill="#7a0019"/><path d="M64.025.069H51.211V6.814h2.251l-7.9,12.945H42.63V26.5H55.913V19.759H53.531l4.018-6.607,1.5,2.313H57.618v6.883H72.13V15.533h-1.5l1.36-2.313,4.087,6.469H73.9v6.883H87.118V19.759H84.191l-7.9-12.875h2.382V0H65.792V6.814h2.044l-3,4.84-3-4.84h2.182Z" transform="translate(-13.199)" fill="#7a0019"/><path d="M113.817,36.232a1.464,1.464,0,1,1-1.471-1.422,1.436,1.436,0,0,1,1.471,1.422Zm-2.568,0a1.1,1.1,0,0,0,1.1,1.139,1.091,1.091,0,0,0,1.091-1.132,1.1,1.1,0,1,0-2.188-.007Zm.877.78h-.331V35.555a2.879,2.879,0,0,1,.545-.041.891.891,0,0,1,.5.1.393.393,0,0,1,.138.311.366.366,0,0,1-.3.331h0a.421.421,0,0,1,.262.345,1.083,1.083,0,0,0,.1.407h-.345a1.222,1.222,0,0,1-.11-.345.249.249,0,0,0-.3-.228h-.159Zm0-.808h.159c.18,0,.331-.062.331-.207s-.1-.221-.3-.221a.787.787,0,0,0-.18,0v.407Z" transform="translate(-34.335 -10.778)" fill="#7a0019"/></svg>