<svg xmlns="http://www.w3.org/2000/svg" width="21.59" height="16.32" viewBox="0 0 21.59 16.32"><path d="M21.181,69.389a.254.254,0,0,1,.409.2V78.28a2.033,2.033,0,0,1-2.024,2.04H2.024A2.033,2.033,0,0,1,0,78.28V69.593a.252.252,0,0,1,.409-.2c.945.739,2.2,1.679,6.5,4.828.89.655,2.391,2.032,3.888,2.023,1.505.013,3.036-1.394,3.892-2.023C18.988,71.072,20.236,70.128,21.181,69.389ZM10.795,74.88c.978.017,2.387-1.241,3.1-1.759,5.6-4.093,6.021-4.45,7.312-5.47a1.02,1.02,0,0,0,.388-.8V66.04A2.033,2.033,0,0,0,19.566,64H2.024A2.033,2.033,0,0,0,0,66.04v.807a1.026,1.026,0,0,0,.388.8C1.678,68.666,2.1,69.028,7.7,73.12,8.408,73.639,9.816,74.9,10.795,74.88Z" transform="translate(0 -64)" fill="#123659"/></svg>