<svg xmlns="http://www.w3.org/2000/svg" width="19.006" height="14.367" viewBox="0 0 19.006 14.367"><path d="M18.646,68.744a.223.223,0,0,1,.36.176v7.651a1.789,1.789,0,0,1-1.782,1.8H1.782A1.789,1.789,0,0,1,0,76.571V68.924a.222.222,0,0,1,.36-.176c.832.651,1.934,1.478,5.72,4.25.783.576,2.1,1.788,3.423,1.781,1.325.011,2.673-1.227,3.426-1.781C16.716,70.226,17.814,69.4,18.646,68.744ZM9.5,73.578c.861.015,2.1-1.092,2.725-1.549,4.926-3.6,5.3-3.917,6.437-4.815a.9.9,0,0,0,.342-.707V65.8A1.789,1.789,0,0,0,17.224,64H1.782A1.789,1.789,0,0,0,0,65.8v.711a.9.9,0,0,0,.342.707c1.136.894,1.511,1.212,6.437,4.815C7.4,72.486,8.642,73.593,9.5,73.578Z" transform="translate(0 -64)" fill="#fff"/></svg>