<svg xmlns="http://www.w3.org/2000/svg" xmlns:xlink="http://www.w3.org/1999/xlink" width="1280" height="800" viewBox="0 0 1280 800"><defs><filter id="a" x="176.5" y="-4.5" width="927" height="815" filterUnits="userSpaceOnUse"><feOffset dy="3" input="SourceAlpha"/><feGaussianBlur stdDeviation="2.5" result="b"/><feFlood flood-opacity="0.349"/><feComposite operator="in" in2="b"/><feComposite in="SourceGraphic"/></filter><clipPath id="d"><rect width="1280" height="800"/></clipPath></defs><g id="c" clip-path="url(#d)"><rect width="1280" height="800" fill="#f5f5f5"/><g transform="matrix(1, 0, 0, 1, 0, 0)" filter="url(#a)"><rect width="912" height="800" transform="translate(184)" fill="#fff"/></g><text transform="translate(227.5 75.5)" fill="#205284" font-size="33" font-family="Montserrat-Regular, Montserrat" letter-spacing="0.03em"><tspan x="0" y="0">I&apos;ve been funded</tspan></text><text transform="translate(985 196)" fill="#5a5a5a" font-size="18" font-family="Roboto-Regular, Roboto"><tspan x="0" y="0">2020-25</tspan></text><text transform="translate(887.455 196)" fill="#5a5a5a" font-size="18" font-family="Roboto-Regular, Roboto"><tspan x="0" y="0">240,000</tspan></text><text transform="translate(730.37 196)" fill="#5a5a5a" font-size="18" font-family="Roboto-Regular, Roboto"><tspan x="-47.602" y="0">active</tspan></text><text transform="translate(985 244.188)" fill="#5a5a5a" font-size="18" font-family="Roboto-Regular, Roboto"><tspan x="0" y="0">2020-25</tspan></text><text transform="translate(887.455 244.188)" fill="#5a5a5a" font-size="18" font-family="Roboto-Regular, Roboto"><tspan x="0" y="0">300,000</tspan></text><text transform="translate(744.17 244.188)" fill="#5a5a5a" font-size="18" font-family="Roboto-Regular, Roboto"><tspan x="-61.901" y="0">inactive</tspan></text><path d="M0,0H834" transform="translate(223 160.5)" fill="#5a5a5a" stroke="#5a5a5a" stroke-width="1"/><text transform="translate(229 197)" fill="#5a5a5a" font-size="18" font-family="Roboto-Regular, Roboto"><tspan x="0" y="0">NSF</tspan></text><text transform="translate(229 244.188)" fill="#5a5a5a" font-size="18" font-family="Roboto-Regular, Roboto"><tspan x="0" y="0">NSF</tspan></text><text transform="translate(1000 141)" fill="#5a5a5a" font-size="18" font-family="Roboto-Regular, Roboto"><tspan x="0" y="0">during</tspan></text><text transform="translate(881.455 141)" fill="#5a5a5a" font-size="18" font-family="Roboto-Regular, Roboto"><tspan x="0" y="0">given ($)</tspan></text><text transform="translate(682.37 141)" fill="#5a5a5a" font-size="18" font-family="Roboto-Regular, Roboto"><tspan x="0" y="0">now it&apos;s</tspan></text><text transform="translate(229 142)" fill="#5a5a5a" font-size="18" font-family="Roboto-Regular, Roboto"><tspan x="0" y="0">by</tspan></text><path d="M0,0H834" transform="translate(223 363.5)" fill="#5a5a5a" stroke="#5a5a5a" stroke-width="1"/><text transform="translate(822 196)" fill="#5a5a5a" font-size="18" font-family="Roboto-Regular, Roboto"><tspan x="-16.251" y="0">PI</tspan></text><text transform="translate(845 141)" fill="#5a5a5a" font-size="18" font-family="Roboto-Regular, Roboto"><tspan x="-41.95" y="0">I was</tspan></text><text transform="translate(844 244)" fill="#5a5a5a" font-size="18" font-family="Roboto-Regular, Roboto"><tspan x="-40.904" y="0">co-PI</tspan></text><text transform="translate(348 197)" fill="#5a5a5a" font-size="18" font-family="Roboto-Regular, Roboto"><tspan x="0" y="0">Rishi: Collaborative Research Online</tspan></text><text transform="translate(348 244.188)" fill="#5a5a5a" font-size="18" font-family="Roboto-Regular, Roboto"><tspan x="0" y="0">A Multicomponent Theory of Number</tspan></text><text transform="translate(348 142)" fill="#5a5a5a" font-size="18" font-family="Roboto-Regular, Roboto"><tspan x="0" y="0">for a project called</tspan></text><text transform="translate(985 291.188)" fill="#5a5a5a" font-size="18" font-family="Roboto-Regular, Roboto"><tspan x="0" y="0">2014-17</tspan></text><text transform="translate(887.455 291.188)" fill="#5a5a5a" font-size="18" font-family="Roboto-Regular, Roboto"><tspan x="0" y="0">500,000</tspan></text><text transform="translate(767.17 291.188)" fill="#5a5a5a" font-size="18" font-family="Roboto-Regular, Roboto"><tspan x="-85.034" y="0">completed</tspan></text><text transform="translate(229 292.188)" fill="#5a5a5a" font-size="18" font-family="Roboto-Regular, Roboto"><tspan x="0" y="0">NIH</tspan></text><text transform="translate(848 291)" fill="#5a5a5a" font-size="18" font-family="Roboto-Regular, Roboto"><tspan x="-45.492" y="0">writer</tspan></text><text transform="translate(348 292.188)" fill="#5a5a5a" font-size="18" font-family="Roboto-Regular, Roboto"><tspan x="0" y="0">Neural Bases of Pattern Recognition</tspan></text><text transform="translate(983 339.188)" fill="#5a5a5a" font-size="18" font-family="Roboto-Regular, Roboto"><tspan x="0" y="0">2012-17</tspan></text><text transform="translate(887.455 339.188)" fill="#5a5a5a" font-size="18" font-family="Roboto-Regular, Roboto"><tspan x="0" y="0">250,000</tspan></text><text transform="translate(767.17 339.188)" fill="#5a5a5a" font-size="18" font-family="Roboto-Regular, Roboto"><tspan x="-85.034" y="0">completed</tspan></text><text transform="translate(848 339)" fill="#5a5a5a" font-size="18" font-family="Roboto-Regular, Roboto"><tspan x="-45.492" y="0">writer</tspan></text><text transform="translate(348 340.188)" fill="#5a5a5a" font-size="18" font-family="Roboto-Regular, Roboto"><tspan x="0" y="0">Nicotine Addiction Research</tspan></text><text transform="translate(873.37 395)" fill="#5a5a5a" font-size="18" font-family="Roboto-Regular, Roboto"><tspan x="0" y="0">1,290,000</tspan></text><text transform="translate(348 395)" fill="#5a5a5a" font-size="18" font-family="Roboto-Regular, Roboto"><tspan x="0" y="0">4 projects</tspan></text><text transform="translate(228 340.188)" fill="#5a5a5a" font-size="18" font-family="Roboto-Regular, Roboto"><tspan x="0" y="0">NIH</tspan></text><path d="M0,0H834" transform="translate(223 110.5)" fill="#575151" stroke="#5a5a5a" stroke-width="1"/><path d="M0,0H834" transform="translate(223 413.5)" fill="#575151" stroke="#5a5a5a" stroke-width="1"/><text transform="translate(682 394)" fill="#5a5a5a" font-size="18" font-family="Roboto-Regular, Roboto"><tspan x="0" y="0">1 active</tspan></text></g></svg>