<svg xmlns="http://www.w3.org/2000/svg" xmlns:xlink="http://www.w3.org/1999/xlink" width="1280" height="800" viewBox="0 0 1280 800"><defs><filter id="a" x="176.5" y="-4.5" width="927" height="815" filterUnits="userSpaceOnUse"><feOffset dy="3" input="SourceAlpha"/><feGaussianBlur stdDeviation="2.5" result="b"/><feFlood flood-opacity="0.349"/><feComposite operator="in" in2="b"/><feComposite in="SourceGraphic"/></filter><filter id="c" x="849.437" y="330" width="213.063" height="46.967" filterUnits="userSpaceOnUse"><feOffset dy="1" input="SourceAlpha"/><feGaussianBlur stdDeviation="1.5" result="d"/><feFlood flood-opacity="0.349"/><feComposite operator="in" in2="d"/><feComposite in="SourceGraphic"/></filter><clipPath id="f"><rect width="1280" height="800"/></clipPath></defs><g id="e" clip-path="url(#f)"><rect width="1280" height="800" fill="#f5f5f5"/><g transform="matrix(1, 0, 0, 1, 0, 0)" filter="url(#a)"><rect width="912" height="800" transform="translate(184)" fill="#fff"/></g><g transform="translate(618.783 -8)"><g transform="translate(256.5 341.5)"><g transform="translate(-21.347)"><g transform="matrix(1, 0, 0, 1, -853.94, -333.5)" filter="url(#c)"><rect width="204.063" height="37.967" rx="4" transform="translate(853.94 333.5)" fill="#208281"/></g></g><text transform="translate(0.748 23.5)" fill="#fff" font-size="14" font-family="Roboto-Regular, Roboto" letter-spacing="0.015em"><tspan x="0" y="0">SHOW ALL MENTEES</tspan></text></g><path d="M1.756,0,7.524,5.768,13.292,0l1.756,1.756L7.524,9.28,0,1.756Z" transform="translate(409.153 355.79)" fill="#fff"/></g><line x2="912" transform="translate(184.5 319.5)" fill="none" stroke="#eaebec" stroke-width="1" stroke-dasharray="4"/><text transform="translate(223.5 85.5)" fill="#205284" font-size="33" font-family="Montserrat-Regular, Montserrat" letter-spacing="0.03em"><tspan x="0" y="0">I&apos;ve advised</tspan></text><text transform="translate(1017 257)" fill="#5a5a5a" font-size="18" font-family="Roboto-Regular, Roboto"><tspan x="0" y="0">2019</tspan></text><text transform="translate(223.456 257)" fill="#5a5a5a" font-size="18" font-family="Roboto-Regular, Roboto"><tspan x="0" y="0">Anonyomous</tspan></text><text transform="translate(424.37 257)" fill="#5a5a5a" font-size="18" font-family="Roboto-Regular, Roboto"><tspan x="0" y="0">doctoral student</tspan></text><text transform="translate(991 301.188)" fill="#5a5a5a" font-size="18" font-family="Roboto-Regular, Roboto"><tspan x="0" y="0">2015-19</tspan></text><text transform="translate(223.456 301.188)" fill="#5a5a5a" font-size="18" font-family="Roboto-Regular, Roboto"><tspan x="0" y="0">Soo-hyun Im</tspan></text><path d="M0,0H834" transform="translate(223 226.5)" fill="#5a5a5a" stroke="#5a5a5a" stroke-width="1"/><text transform="translate(224 148)" fill="#205284" font-size="26" font-family="Montserrat-Regular, Montserrat"><tspan x="0" y="0">as a consultant</tspan></text><text transform="translate(793 257)" fill="#5a5a5a" font-size="18" font-family="Roboto-Regular, Roboto"><tspan x="0" y="0">private location</tspan></text><text transform="translate(793 301.188)" fill="#5a5a5a" font-size="18" font-family="Roboto-Regular, Roboto"><tspan x="0" y="0">Columbia University</tspan></text><text transform="translate(618 301.188)" fill="#5a5a5a" font-size="18" font-family="Roboto-Regular, Roboto"><tspan x="0" y="0">post-doc fellow</tspan></text><text transform="translate(618 257.188)" fill="#5a5a5a" font-size="18" font-family="Roboto-Regular, Roboto"><tspan x="0" y="0">higher ed staff</tspan></text><text transform="translate(1004 196)" fill="#5a5a5a" font-size="18" font-family="Roboto-Regular, Roboto"><tspan x="0" y="17">during</tspan></text><text transform="translate(223.456 196)" fill="#5a5a5a" font-size="18" font-family="Roboto-Regular, Roboto"><tspan x="0" y="17">to</tspan></text><text transform="translate(424.37 196)" fill="#5a5a5a" font-size="18" font-family="Roboto-Regular, Roboto"><tspan x="0" y="17">who was </tspan></text><text transform="translate(793 196)" fill="#5a5a5a" font-size="18" font-family="Roboto-Regular, Roboto"><tspan x="0" y="17">at</tspan></text><text transform="translate(618 196.188)" fill="#5a5a5a" font-size="18" font-family="Roboto-Regular, Roboto"><tspan x="0" y="17">now they&apos;re</tspan></text><text transform="translate(424.37 301)" fill="#5a5a5a" font-size="18" font-family="Roboto-Regular, Roboto"><tspan x="0" y="0">doctoral student</tspan></text><path d="M0,0H834" transform="translate(223 186.5)" fill="#575151" stroke="#5a5a5a" stroke-width="1"/></g></svg>