<svg xmlns="http://www.w3.org/2000/svg" xmlns:xlink="http://www.w3.org/1999/xlink" width="258.763" height="196.564" viewBox="0 0 258.763 196.564"><defs><filter id="a" x="0" y="22.332" width="136.712" height="174.233" filterUnits="userSpaceOnUse"><feOffset dy="3" input="SourceAlpha"/><feGaussianBlur stdDeviation="3" result="b"/><feFlood flood-opacity="0.251"/><feComposite operator="in" in2="b"/><feComposite in="SourceGraphic"/></filter></defs><g transform="translate(-793.165 -2132.926)"><g transform="translate(802.669 2132.926)"><g transform="translate(0 28.836)"><g transform="matrix(1, 0, 0, 1, -9.5, -28.84)" filter="url(#a)"><path d="M102.645,394.073a7.517,7.517,0,0,1-7.548-7.657l.109-21.659-4.8-.036L7.694,364.1,6.6,518.45l116.829.875.875-125.034Z" transform="translate(2.9 -335.26)" fill="#f1f1f1" stroke="#f1f1f1" stroke-width="1"/></g></g><path d="M144.35,345.2,65.615,293.8a74.948,74.948,0,0,0,5.468-57.593,76.813,76.813,0,0,0-95.867-51.4,77.262,77.262,0,0,0-51.4,95.867,77.262,77.262,0,0,0,95.867,51.4,78.267,78.267,0,0,0,36.451-24.058l69.987,59.051S151.276,368.895,144.35,345.2ZM14.583,314.582c-30.619,9.477-63.425-8.019-72.9-39a58.321,58.321,0,0,1,39-72.9,58.321,58.321,0,0,1,72.9,39A58.612,58.612,0,0,1,14.583,314.582Z" transform="translate(103.703 -181.487)" fill="#0d1112"/></g></g></svg>