<svg xmlns="http://www.w3.org/2000/svg" xmlns:xlink="http://www.w3.org/1999/xlink" width="336.777" height="250.624" viewBox="0 0 336.777 250.624"><defs><radialGradient id="a" cx="0.5" cy="0.5" r="0.527" gradientTransform="matrix(0.749, 0.662, -0.662, 0.749, 0.456, -0.206)" gradientUnits="objectBoundingBox"><stop offset="0" stop-color="#6c6c6c"/><stop offset="1" stop-color="#363636"/></radialGradient></defs><g transform="translate(-110.723 -2456.206)"><path d="M-25.134,260.8H-177.641A10.117,10.117,0,0,0-187.8,270.959V375.933a10.117,10.117,0,0,0,10.159,10.159h49.54v12.165h-1.254a5.3,5.3,0,0,0-5.268,5.268,5.3,5.3,0,0,0,5.268,5.268H-73.42a5.3,5.3,0,0,0,5.268-5.268,5.3,5.3,0,0,0-5.268-5.268h-1.254V386.092h49.54a10.117,10.117,0,0,0,10.159-10.159V270.959A10.117,10.117,0,0,0-25.134,260.8Zm2.258,115.133a2.381,2.381,0,0,1-2.383,2.383H-177.767a2.381,2.381,0,0,1-2.383-2.383V270.959a2.381,2.381,0,0,1,2.383-2.383H-25.259a2.381,2.381,0,0,1,2.383,2.383Z" transform="translate(376.625 2274.055)" fill="#1f232b"/><path d="M6.271,38.378a6.21,6.21,0,0,0,6.271-6.271v-.125l18.311-6.4a6.115,6.115,0,0,0,4.891,2.508,5.467,5.467,0,0,0,3.763-1.254L59.2,40.259a8.469,8.469,0,0,0-.251,1.756,6.271,6.271,0,1,0,12.542,0,7.3,7.3,0,0,0-.376-2.383L91.555,22.2a5.791,5.791,0,0,0,3.261.878,6.21,6.21,0,0,0,6.271-6.271v-.251L119.4,10.033a6.115,6.115,0,0,0,4.891,2.508,6.21,6.21,0,0,0,6.271-6.271,6.271,6.271,0,1,0-12.542,0V6.4L99.707,12.918a6.115,6.115,0,0,0-4.891-2.508,6.21,6.21,0,0,0-6.271,6.271,7.3,7.3,0,0,0,.376,2.383L68.478,36.5a5.792,5.792,0,0,0-3.261-.878,5.467,5.467,0,0,0-3.763,1.254l-19.69-13.42a8.467,8.467,0,0,0,.251-1.756,6.271,6.271,0,0,0-12.542,0v.125l-18.311,6.4a6.115,6.115,0,0,0-4.891-2.508A6.21,6.21,0,0,0,0,31.981,6.483,6.483,0,0,0,6.271,38.378Z" transform="translate(205.644 2595.179) rotate(-16)" fill="#1f232b"/><path d="M-26,304.6a18.762,18.762,0,0,1,6.522-1.129,15.894,15.894,0,0,1,4.264.5V281.393A5.433,5.433,0,0,0-20.61,276H-47.7v10.786H-26V304.6Z" transform="translate(412.234 2277.919)" fill="#1f232b"/><path d="M-218.16,300.625a5.433,5.433,0,0,0-5.393,5.393v70.234H-230.2a20.212,20.212,0,0,1,.753,5.518,17.592,17.592,0,0,1-.753,5.142h11.915a5.433,5.433,0,0,0,5.393-5.393V311.286h32.483V300.5H-218.16Z" transform="translate(365.848 2284.146)" fill="#1f232b"/><path d="M-202.934,391.394a19.722,19.722,0,0,1,6.145,1V328.686H-186V317.9h-16.3a5.433,5.433,0,0,0-5.393,5.393v68.729A15.087,15.087,0,0,1-202.934,391.394Z" transform="translate(371.567 2288.569)" fill="#1f232b"/><path d="M-62.2,233a19.316,19.316,0,0,1,.753,5.393,19.316,19.316,0,0,1-.753,5.393h29.975V233Z" transform="translate(408.549 2266.989)" fill="#1f232b"/><path d="M24.64,251.512a21.976,21.976,0,0,1-5.017-.627V269.07H-23.52V218.151a21.789,21.789,0,0,1-4.891.627,18.654,18.654,0,0,1-5.895-.878v51.546H-55a12.708,12.708,0,0,1,8.9,10.66H25.016a5.433,5.433,0,0,0,5.393-5.393v-24.08A21.359,21.359,0,0,1,24.64,251.512Z" transform="translate(410.379 2263.151)" fill="#1f232b"/><path d="M-78.948,223.8A11.958,11.958,0,0,0-90.9,235.752,11.958,11.958,0,0,0-78.948,247.7,11.958,11.958,0,0,0-67,235.752,11.958,11.958,0,0,0-78.948,223.8Zm0,18.415a6.442,6.442,0,0,1-6.463-6.463,6.442,6.442,0,0,1,6.463-6.463,6.442,6.442,0,0,1,6.463,6.463A6.5,6.5,0,0,1-78.948,242.215Z" transform="translate(201.623 2429.904)" fill="url(#a)"/><path d="M-78.948,223.8A11.958,11.958,0,0,0-90.9,235.752,11.958,11.958,0,0,0-78.948,247.7,11.958,11.958,0,0,0-67,235.752,11.958,11.958,0,0,0-78.948,223.8Zm0,18.415a6.442,6.442,0,0,1-6.463-6.463,6.442,6.442,0,0,1,6.463-6.463,6.442,6.442,0,0,1,6.463,6.463A6.5,6.5,0,0,1-78.948,242.215Z" transform="translate(201.623 2429.904)" fill="#1f232b"/><path d="M-78.948,223.8A11.958,11.958,0,0,0-90.9,235.752,11.958,11.958,0,0,0-78.948,247.7,11.958,11.958,0,0,0-67,235.752,11.958,11.958,0,0,0-78.948,223.8Zm0,18.415a6.442,6.442,0,0,1-6.463-6.463,6.442,6.442,0,0,1,6.463-6.463,6.442,6.442,0,0,1,6.463,6.463A6.5,6.5,0,0,1-78.948,242.215Z" transform="translate(247.471 2459.126)" fill="#1f232b"/><path d="M-78.948,223.8A11.958,11.958,0,0,0-90.9,235.752,11.958,11.958,0,0,0-78.948,247.7,11.958,11.958,0,0,0-67,235.752,11.958,11.958,0,0,0-78.948,223.8Zm0,18.415a6.442,6.442,0,0,1-6.463-6.463,6.442,6.442,0,0,1,6.463-6.463,6.442,6.442,0,0,1,6.463,6.463A6.5,6.5,0,0,1-78.948,242.215Z" transform="translate(470.664 2359.873)" fill="#1f232b"/><path d="M-78.948,223.8A11.958,11.958,0,0,0-90.9,235.752,11.958,11.958,0,0,0-78.948,247.7,11.958,11.958,0,0,0-67,235.752,11.958,11.958,0,0,0-78.948,223.8Zm0,18.415a6.442,6.442,0,0,1-6.463-6.463,6.442,6.442,0,0,1,6.463-6.463,6.442,6.442,0,0,1,6.463,6.463A6.5,6.5,0,0,1-78.948,242.215Z" transform="translate(514.496 2265.155)" fill="#1f232b"/><path d="M-78.948,223.8A11.958,11.958,0,0,0-90.9,235.752,11.958,11.958,0,0,0-78.948,247.7,11.958,11.958,0,0,0-67,235.752,11.958,11.958,0,0,0-78.948,223.8Zm0,18.415a6.442,6.442,0,0,1-6.463-6.463,6.442,6.442,0,0,1,6.463-6.463,6.442,6.442,0,0,1,6.463,6.463A6.5,6.5,0,0,1-78.948,242.215Z" transform="translate(460.588 2232.406)" fill="#1f232b"/><path d="M-78.948,223.8A11.958,11.958,0,0,0-90.9,235.752,11.958,11.958,0,0,0-78.948,247.7,11.958,11.958,0,0,0-67,235.752,11.958,11.958,0,0,0-78.948,223.8Zm0,18.415a6.442,6.442,0,0,1-6.463-6.463,6.442,6.442,0,0,1,6.463-6.463,6.442,6.442,0,0,1,6.463,6.463A6.5,6.5,0,0,1-78.948,242.215Z" transform="translate(412.724 2269.185)" fill="#1f232b"/></g></svg>